<svg width="664" height="379" viewBox="0 0 664 379" fill="none" xmlns="http://www.w3.org/2000/svg">
<g filter="url(#filter0_d_2_3226)">
<mask id="path-1-outside-1_2_3226" maskUnits="userSpaceOnUse" x="0" y="0" width="560" height="371" fill="black">
<rect fill="white" width="560" height="371"/>
<path d="M164.584 1.36363H208.618V261.307C208.618 284.508 204.357 304.216 195.834 320.433C187.312 336.65 175.297 348.961 159.79 357.365C144.284 365.769 125.995 369.972 104.925 369.972C85.0389 369.972 67.3424 366.361 51.8358 359.141C36.3291 351.802 24.1369 341.385 15.2591 327.891C6.38121 314.396 1.94229 298.357 1.94229 279.773H45.2662C45.2662 290.071 47.8111 299.067 52.9011 306.761C58.1094 314.337 65.2117 320.256 74.2079 324.517C83.2041 328.778 93.4432 330.909 104.925 330.909C117.591 330.909 128.363 328.246 137.241 322.919C146.118 317.592 152.866 309.78 157.482 299.482C162.217 289.065 164.584 276.34 164.584 261.307V1.36363ZM296.864 365V1.36363H419.733C448.143 1.36363 471.462 6.21684 489.691 15.9233C507.92 25.5113 521.414 38.7097 530.174 55.5185C538.933 72.3272 543.313 91.4441 543.313 112.869C543.313 134.295 538.933 153.293 530.174 169.865C521.414 186.437 507.979 199.458 489.868 208.928C471.758 218.279 448.616 222.955 420.444 222.955H321.012V183.182H419.023C438.436 183.182 454.061 180.341 465.898 174.659C477.854 168.977 486.495 160.928 491.822 150.511C497.267 139.976 499.989 127.429 499.989 112.869C499.989 98.3096 497.267 85.5847 491.822 74.6946C486.376 63.8044 477.676 55.4001 465.721 49.4815C453.765 43.4446 437.963 40.4261 418.313 40.4261H340.898V365H296.864ZM468.029 201.648L557.518 365H506.381L418.313 201.648H468.029Z"/>
</mask>
<path d="M164.584 1.36363H208.618V261.307C208.618 284.508 204.357 304.216 195.834 320.433C187.312 336.65 175.297 348.961 159.79 357.365C144.284 365.769 125.995 369.972 104.925 369.972C85.0389 369.972 67.3424 366.361 51.8358 359.141C36.3291 351.802 24.1369 341.385 15.2591 327.891C6.38121 314.396 1.94229 298.357 1.94229 279.773H45.2662C45.2662 290.071 47.8111 299.067 52.9011 306.761C58.1094 314.337 65.2117 320.256 74.2079 324.517C83.2041 328.778 93.4432 330.909 104.925 330.909C117.591 330.909 128.363 328.246 137.241 322.919C146.118 317.592 152.866 309.78 157.482 299.482C162.217 289.065 164.584 276.34 164.584 261.307V1.36363ZM296.864 365V1.36363H419.733C448.143 1.36363 471.462 6.21684 489.691 15.9233C507.92 25.5113 521.414 38.7097 530.174 55.5185C538.933 72.3272 543.313 91.4441 543.313 112.869C543.313 134.295 538.933 153.293 530.174 169.865C521.414 186.437 507.979 199.458 489.868 208.928C471.758 218.279 448.616 222.955 420.444 222.955H321.012V183.182H419.023C438.436 183.182 454.061 180.341 465.898 174.659C477.854 168.977 486.495 160.928 491.822 150.511C497.267 139.976 499.989 127.429 499.989 112.869C499.989 98.3096 497.267 85.5847 491.822 74.6946C486.376 63.8044 477.676 55.4001 465.721 49.4815C453.765 43.4446 437.963 40.4261 418.313 40.4261H340.898V365H296.864ZM468.029 201.648L557.518 365H506.381L418.313 201.648H468.029Z" fill="#FAFAFA"/>
<path d="M164.584 1.36363V0.363626H163.584V1.36363H164.584ZM208.618 1.36363H209.618V0.363626H208.618V1.36363ZM195.834 320.433L196.72 320.898L196.72 320.898L195.834 320.433ZM159.79 357.365L160.267 358.244L160.267 358.244L159.79 357.365ZM51.8358 359.141L51.408 360.045L51.4136 360.047L51.8358 359.141ZM15.2591 327.891L14.4236 328.44L14.4236 328.44L15.2591 327.891ZM1.94229 279.773V278.773H0.942295V279.773H1.94229ZM45.2662 279.773H46.2662V278.773H45.2662V279.773ZM52.9011 306.761L52.0671 307.313L52.072 307.321L52.0771 307.328L52.9011 306.761ZM74.2079 324.517L74.636 323.613L74.636 323.613L74.2079 324.517ZM137.241 322.919L136.726 322.062L136.726 322.062L137.241 322.919ZM157.482 299.482L156.572 299.068L156.57 299.072L157.482 299.482ZM164.584 1.36363V2.36363H208.618V1.36363V0.363626H164.584V1.36363ZM208.618 1.36363H207.618V261.307H208.618H209.618V1.36363H208.618ZM208.618 261.307H207.618C207.618 284.388 203.379 303.928 194.949 319.968L195.834 320.433L196.72 320.898C205.335 304.505 209.618 284.627 209.618 261.307H208.618ZM195.834 320.433L194.949 319.968C186.515 336.017 174.639 348.18 159.314 356.486L159.79 357.365L160.267 358.244C175.955 349.742 188.108 337.284 196.72 320.898L195.834 320.433ZM159.79 357.365L159.314 356.486C143.979 364.797 125.861 368.972 104.925 368.972V369.972V370.972C126.129 370.972 144.588 366.742 160.267 358.244L159.79 357.365ZM104.925 369.972V368.972C85.1611 368.972 67.6125 365.384 52.2579 358.234L51.8358 359.141L51.4136 360.047C67.0723 367.339 84.9166 370.972 104.925 370.972V369.972ZM51.8358 359.141L52.2636 358.237C36.912 350.971 24.8652 340.672 16.0945 327.341L15.2591 327.891L14.4236 328.44C23.4086 342.097 35.7463 352.632 51.408 360.045L51.8358 359.141ZM15.2591 327.891L16.0945 327.341C7.33947 314.033 2.94229 298.192 2.94229 279.773H1.94229H0.942295C0.942295 298.522 5.42296 314.759 14.4236 328.44L15.2591 327.891ZM1.94229 279.773V280.773H45.2662V279.773V278.773H1.94229V279.773ZM45.2662 279.773H44.2662C44.2662 290.244 46.8565 299.437 52.0671 307.313L52.9011 306.761L53.7351 306.21C48.7658 298.698 46.2662 289.898 46.2662 279.773H45.2662ZM52.9011 306.761L52.0771 307.328C57.3935 315.061 64.6378 321.09 73.7798 325.421L74.2079 324.517L74.636 323.613C65.7856 319.421 58.8253 313.613 53.7251 306.195L52.9011 306.761ZM74.2079 324.517L73.7798 325.421C82.9289 329.755 93.3179 331.909 104.925 331.909V330.909V329.909C93.5686 329.909 83.4793 327.802 74.636 323.613L74.2079 324.517ZM104.925 330.909V331.909C117.732 331.909 128.69 329.215 137.755 323.777L137.241 322.919L136.726 322.062C128.035 327.276 117.45 329.909 104.925 329.909V330.909ZM137.241 322.919L137.755 323.777C146.824 318.335 153.702 310.358 158.395 299.891L157.482 299.482L156.57 299.072C152.029 309.202 145.413 316.85 136.726 322.062L137.241 322.919ZM157.482 299.482L158.392 299.895C163.202 289.315 165.584 276.44 165.584 261.307H164.584H163.584C163.584 276.24 161.232 288.815 156.572 299.068L157.482 299.482ZM164.584 261.307H165.584V1.36363H164.584H163.584V261.307H164.584ZM296.864 365H295.864V366H296.864V365ZM296.864 1.36363V0.363626H295.864V1.36363H296.864ZM489.691 15.9233L489.221 16.806L489.225 16.8083L489.691 15.9233ZM530.174 55.5185L529.287 55.9806L529.287 55.9806L530.174 55.5185ZM530.174 169.865L529.29 169.398L529.29 169.398L530.174 169.865ZM489.868 208.928L490.327 209.816L490.332 209.814L489.868 208.928ZM321.012 222.955H320.012V223.955H321.012V222.955ZM321.012 183.182V182.182H320.012V183.182H321.012ZM465.898 174.659L465.469 173.756L465.466 173.758L465.898 174.659ZM491.822 150.511L490.933 150.052L490.931 150.056L491.822 150.511ZM465.721 49.4815L465.27 50.3742L465.277 50.3777L465.721 49.4815ZM340.898 40.4261V39.4261H339.898V40.4261H340.898ZM340.898 365V366H341.898V365H340.898ZM468.029 201.648L468.906 201.167L468.621 200.648H468.029V201.648ZM557.518 365V366H559.206L558.395 364.52L557.518 365ZM506.381 365L505.501 365.475L505.784 366H506.381V365ZM418.313 201.648V200.648H416.638L417.433 202.122L418.313 201.648ZM296.864 365H297.864V1.36363H296.864H295.864V365H296.864ZM296.864 1.36363V2.36363H419.733V1.36363V0.363626H296.864V1.36363ZM419.733 1.36363V2.36363C448.037 2.36363 471.18 7.20001 489.221 16.806L489.691 15.9233L490.161 15.0406C471.743 5.23368 448.248 0.363626 419.733 0.363626V1.36363ZM489.691 15.9233L489.225 16.8083C507.291 26.3102 520.63 39.3682 529.287 55.9806L530.174 55.5185L531.061 55.0563C522.199 38.0513 508.549 24.7125 490.156 15.0382L489.691 15.9233ZM530.174 55.5185L529.287 55.9806C537.963 72.6289 542.313 91.5838 542.313 112.869H543.313H544.313C544.313 91.3044 539.904 72.0254 531.061 55.0563L530.174 55.5185ZM543.313 112.869H542.313C542.313 134.155 537.963 152.989 529.29 169.398L530.174 169.865L531.058 170.332C539.904 153.597 544.313 134.434 544.313 112.869H543.313ZM530.174 169.865L529.29 169.398C520.633 185.774 507.353 198.657 489.405 208.041L489.868 208.928L490.332 209.814C508.605 200.259 522.195 187.1 531.058 170.332L530.174 169.865ZM489.868 208.928L489.41 208.039C471.484 217.295 448.514 221.955 420.444 221.955V222.955V223.955C448.718 223.955 472.031 219.263 490.327 209.816L489.868 208.928ZM420.444 222.955V221.955H321.012V222.955V223.955H420.444V222.955ZM321.012 222.955H322.012V183.182H321.012H320.012V222.955H321.012ZM321.012 183.182V184.182H419.023V183.182V182.182H321.012V183.182ZM419.023 183.182V184.182C438.52 184.182 454.31 181.331 466.331 175.561L465.898 174.659L465.466 173.758C453.812 179.351 438.352 182.182 419.023 182.182V183.182ZM465.898 174.659L466.328 175.562C478.454 169.799 487.272 161.605 492.712 150.967L491.822 150.511L490.931 150.056C485.718 160.251 477.253 168.156 465.469 173.756L465.898 174.659ZM491.822 150.511L492.71 150.971C498.243 140.265 500.989 127.553 500.989 112.869H499.989H498.989C498.989 127.305 496.29 139.688 490.933 150.052L491.822 150.511ZM499.989 112.869H500.989C500.989 98.1845 498.243 85.301 492.716 74.2474L491.822 74.6946L490.927 75.1418C496.29 85.8685 498.989 98.4348 498.989 112.869H499.989ZM491.822 74.6946L492.716 74.2474C487.164 63.1437 478.295 54.5907 466.164 48.5853L465.721 49.4815L465.277 50.3777C477.057 56.2095 485.589 64.4652 490.927 75.1418L491.822 74.6946ZM465.721 49.4815L466.171 48.5889C454.026 42.4562 438.052 39.4261 418.313 39.4261V40.4261V41.4261C437.874 41.4261 453.504 44.433 465.27 50.3742L465.721 49.4815ZM418.313 40.4261V39.4261H340.898V40.4261V41.4261H418.313V40.4261ZM340.898 40.4261H339.898V365H340.898H341.898V40.4261H340.898ZM340.898 365V364H296.864V365V366H340.898V365ZM468.029 201.648L467.152 202.128L556.641 365.48L557.518 365L558.395 364.52L468.906 201.167L468.029 201.648ZM557.518 365V364H506.381V365V366H557.518V365ZM506.381 365L507.261 364.525L419.193 201.173L418.313 201.648L417.433 202.122L505.501 365.475L506.381 365ZM418.313 201.648V202.648H468.029V201.648V200.648H418.313V201.648Z" fill="black" mask="url(#path-1-outside-1_2_3226)"/>
</g>
<defs>
<filter id="filter0_d_2_3226" x="0.942291" y="0.363617" width="662.263" height="378.608" filterUnits="userSpaceOnUse" color-interpolation-filters="sRGB">
<feFlood flood-opacity="0" result="BackgroundImageFix"/>
<feColorMatrix in="SourceAlpha" type="matrix" values="0 0 0 0 0 0 0 0 0 0 0 0 0 0 0 0 0 0 127 0" result="hardAlpha"/>
<feOffset dx="100" dy="4"/>
<feGaussianBlur stdDeviation="2"/>
<feComposite in2="hardAlpha" operator="out"/>
<feColorMatrix type="matrix" values="0 0 0 0 0 0 0 0 0 0 0 0 0 0 0 0 0 0 0.25 0"/>
<feBlend mode="normal" in2="BackgroundImageFix" result="effect1_dropShadow_2_3226"/>
<feBlend mode="normal" in="SourceGraphic" in2="effect1_dropShadow_2_3226" result="shape"/>
</filter>
</defs>
</svg>
